# xmcd
# Copyright (C) 1995-1998 Ti Kan
#
# Track frame offsets:
#       150
#       28145
#       55032
#       73717
#       88647
#       115537
#       140392
#       156155
#       181037
#
# Disc length: 3094 seconds
#
# Revision: 0
# Processed by: cddbd v1.5.2PL0 Copyright (c) Steve Scherf et al.
# Submitted via: CD-Import v1.0
#
DISCID=6d0c1409
DTITLE=Bob Dylan - Highway 61 Revisited
DYEAR=1965
DGENRE=
TTITLE0=Like Rolling Stone
TTITLE1=Tombstone Blues
TTITLE2=It Takes A Lot To Laugh, It Takes A Train To Cry
TTITLE3=From Buick 6
TTITLE4=Ballad Of A Thin Man
TTITLE5=Queen Jane Approximately
TTITLE6=Highway 61 Revisited
TTITLE7=Just Like Tom Thumb's Blues
TTITLE8=Desolation Row
EXTD=
EXTT0=
EXTT1=
EXTT2=
EXTT3=
EXTT4=
EXTT5=
EXTT6=
EXTT7=
EXTT8=
PLAYORDER=
